<mxfile host="app.diagrams.net" agent="Mozilla/5.0 (Windows NT 10.0; Win64; x64; rv:134.0) Gecko/20100101 Firefox/134.0" version="26.0.4">
  <diagram name="Page-1" id="bBekCKZbD3mow58dUtmb">
    <mxGraphModel dx="191" dy="86" grid="1" gridSize="10" guides="1" tooltips="1" connect="1" arrows="1" fold="1" page="1" pageScale="1" pageWidth="827" pageHeight="1169" math="0" shadow="0">
      <root>
        <mxCell id="0" />
        <mxCell id="1" parent="0" />
        <mxCell id="vRpTffNEWVpZN7InwMxp-1" value="" style="rounded=0;whiteSpace=wrap;html=1;" vertex="1" parent="1">
          <mxGeometry x="124" y="110" width="1530" height="920" as="geometry" />
        </mxCell>
        <mxCell id="vRpTffNEWVpZN7InwMxp-2" value="&lt;div style=&quot;line-height: 10%;&quot;&gt;&lt;br&gt;&lt;/div&gt;&lt;div&gt;&lt;br&gt;&lt;/div&gt;" style="rounded=0;whiteSpace=wrap;html=1;" vertex="1" parent="1">
          <mxGeometry x="490" y="320" width="110" height="210" as="geometry" />
        </mxCell>
        <mxCell id="vRpTffNEWVpZN7InwMxp-3" value="Subsystem Calendar" style="text;html=1;align=center;verticalAlign=middle;whiteSpace=wrap;rounded=0;fontSize=5;" vertex="1" parent="1">
          <mxGeometry x="490" y="320" width="30" height="10" as="geometry" />
        </mxCell>
        <mxCell id="vRpTffNEWVpZN7InwMxp-22" value="Teacher" style="shape=umlActor;verticalLabelPosition=bottom;verticalAlign=top;html=1;fontSize=5;" vertex="1" parent="1">
          <mxGeometry x="450" y="380" width="10" height="20" as="geometry" />
        </mxCell>
        <mxCell id="vRpTffNEWVpZN7InwMxp-23" value="Student" style="shape=umlActor;verticalLabelPosition=bottom;verticalAlign=top;html=1;fontSize=5;" vertex="1" parent="1">
          <mxGeometry x="620" y="375" width="10" height="20" as="geometry" />
        </mxCell>
        <mxCell id="vRpTffNEWVpZN7InwMxp-25" value="Browse calendar" style="ellipse;whiteSpace=wrap;html=1;fontSize=5;" vertex="1" parent="1">
          <mxGeometry x="525" y="380" width="40" height="30" as="geometry" />
        </mxCell>
        <mxCell id="vRpTffNEWVpZN7InwMxp-28" value="Book Room" style="ellipse;whiteSpace=wrap;html=1;fontSize=5;" vertex="1" parent="1">
          <mxGeometry x="525" y="345" width="40" height="30" as="geometry" />
        </mxCell>
        <mxCell id="vRpTffNEWVpZN7InwMxp-29" value="Book materials" style="ellipse;whiteSpace=wrap;html=1;fontSize=5;" vertex="1" parent="1">
          <mxGeometry x="525" y="420" width="40" height="30" as="geometry" />
        </mxCell>
        <mxCell id="vRpTffNEWVpZN7InwMxp-30" value="Summary of work hours" style="ellipse;whiteSpace=wrap;html=1;fontSize=5;" vertex="1" parent="1">
          <mxGeometry x="525" y="460" width="40" height="30" as="geometry" />
        </mxCell>
        <mxCell id="vRpTffNEWVpZN7InwMxp-31" value="&lt;div&gt;Modify summary hours&lt;/div&gt;&lt;div&gt;&lt;br&gt;&lt;/div&gt;" style="ellipse;whiteSpace=wrap;html=1;fontSize=5;" vertex="1" parent="1">
          <mxGeometry x="525" y="500" width="40" height="30" as="geometry" />
        </mxCell>
        <mxCell id="vRpTffNEWVpZN7InwMxp-34" value="" style="endArrow=none;html=1;rounded=0;exitX=0.5;exitY=0.5;exitDx=0;exitDy=0;exitPerimeter=0;entryX=0;entryY=0.5;entryDx=0;entryDy=0;" edge="1" parent="1" source="vRpTffNEWVpZN7InwMxp-22" target="vRpTffNEWVpZN7InwMxp-25">
          <mxGeometry width="50" height="50" relative="1" as="geometry">
            <mxPoint x="490" y="450" as="sourcePoint" />
            <mxPoint x="540" y="400" as="targetPoint" />
          </mxGeometry>
        </mxCell>
        <mxCell id="vRpTffNEWVpZN7InwMxp-35" value="" style="endArrow=none;html=1;rounded=0;entryX=0.5;entryY=0.5;entryDx=0;entryDy=0;entryPerimeter=0;exitX=0.947;exitY=0.474;exitDx=0;exitDy=0;exitPerimeter=0;" edge="1" parent="1" source="vRpTffNEWVpZN7InwMxp-25" target="vRpTffNEWVpZN7InwMxp-23">
          <mxGeometry width="50" height="50" relative="1" as="geometry">
            <mxPoint x="550" y="480" as="sourcePoint" />
            <mxPoint x="600" y="430" as="targetPoint" />
          </mxGeometry>
        </mxCell>
        <mxCell id="vRpTffNEWVpZN7InwMxp-40" value="" style="endArrow=none;html=1;rounded=0;exitX=0.5;exitY=0.5;exitDx=0;exitDy=0;exitPerimeter=0;entryX=0.033;entryY=0.29;entryDx=0;entryDy=0;entryPerimeter=0;" edge="1" parent="1" target="vRpTffNEWVpZN7InwMxp-29">
          <mxGeometry width="50" height="50" relative="1" as="geometry">
            <mxPoint x="455" y="395" as="sourcePoint" />
            <mxPoint x="525" y="400" as="targetPoint" />
          </mxGeometry>
        </mxCell>
        <mxCell id="vRpTffNEWVpZN7InwMxp-41" value="" style="endArrow=none;html=1;rounded=0;exitX=0.5;exitY=0.5;exitDx=0;exitDy=0;exitPerimeter=0;entryX=0.05;entryY=0.405;entryDx=0;entryDy=0;entryPerimeter=0;" edge="1" parent="1" target="vRpTffNEWVpZN7InwMxp-30">
          <mxGeometry width="50" height="50" relative="1" as="geometry">
            <mxPoint x="455" y="392.5" as="sourcePoint" />
            <mxPoint x="525" y="397.5" as="targetPoint" />
          </mxGeometry>
        </mxCell>
        <mxCell id="vRpTffNEWVpZN7InwMxp-42" value="" style="endArrow=none;html=1;rounded=0;exitX=0.5;exitY=0.5;exitDx=0;exitDy=0;exitPerimeter=0;entryX=0.75;entryY=0.1;entryDx=0;entryDy=0;entryPerimeter=0;" edge="1" parent="1" target="vRpTffNEWVpZN7InwMxp-43">
          <mxGeometry width="50" height="50" relative="1" as="geometry">
            <mxPoint x="455" y="392.5" as="sourcePoint" />
            <mxPoint x="525" y="397.5" as="targetPoint" />
          </mxGeometry>
        </mxCell>
        <mxCell id="vRpTffNEWVpZN7InwMxp-43" value="Referent teacher" style="shape=umlActor;verticalLabelPosition=bottom;verticalAlign=top;html=1;fontSize=5;" vertex="1" parent="1">
          <mxGeometry x="450" y="480" width="10" height="20" as="geometry" />
        </mxCell>
        <mxCell id="vRpTffNEWVpZN7InwMxp-48" value="" style="endArrow=none;html=1;rounded=0;exitX=0.5;exitY=0.5;exitDx=0;exitDy=0;exitPerimeter=0;entryX=0.064;entryY=0.463;entryDx=0;entryDy=0;entryPerimeter=0;" edge="1" parent="1" source="vRpTffNEWVpZN7InwMxp-43" target="vRpTffNEWVpZN7InwMxp-31">
          <mxGeometry width="50" height="50" relative="1" as="geometry">
            <mxPoint x="453" y="490" as="sourcePoint" />
            <mxPoint x="525" y="569.5" as="targetPoint" />
          </mxGeometry>
        </mxCell>
        <mxCell id="vRpTffNEWVpZN7InwMxp-49" style="edgeStyle=orthogonalEdgeStyle;rounded=1;orthogonalLoop=1;jettySize=auto;html=1;exitX=0;exitY=0.5;exitDx=0;exitDy=0;entryX=0.473;entryY=-0.087;entryDx=0;entryDy=0;entryPerimeter=0;curved=0;" edge="1" parent="1" source="vRpTffNEWVpZN7InwMxp-28" target="vRpTffNEWVpZN7InwMxp-22">
          <mxGeometry relative="1" as="geometry" />
        </mxCell>
      </root>
    </mxGraphModel>
  </diagram>
</mxfile>
